<?xml version="1.0" encoding="UTF-8"?>
<svg width="81px" height="50px" viewBox="0 0 81 50" version="1.1" xmlns="http://www.w3.org/2000/svg" xmlns:xlink="http://www.w3.org/1999/xlink">
    <!-- Generator: Sketch 48.2 (47327) - http://www.bohemiancoding.com/sketch -->
    <title>Group 4</title>
    <desc>Created with Sketch.</desc>
    <defs></defs>
    <g id="Footer-Copy-3" stroke="none" stroke-width="1" fill="none" fill-rule="evenodd" transform="translate(-199.000000, -76.000000)">
        <g id="Group-4" transform="translate(200.000000, 77.000000)">
            <g id="Page-1" stroke="#333333" stroke-width="1.5">
                <path d="M6,42 L6,1.538123 C6,0.688641 6.684947,0 7.541364,0 L71.45863,0 C72.30991,0 73,0.685753 73,1.526375 L73,41.5041" id="Stroke-3"></path>
                <path d="M11.05143,41 L11,6.479224 C11,5.662271 11.67783,5 12.52009,5 L66.31082,5 C67.15034,5 67.83091,5.662178 67.83091,6.480857 L68,33.21311" id="Stroke-4"></path>
                <path d="M3.018152,41.28156 L31.8301,41.38148 L31.8301,43.88573 L47.1699,44.02221 L47.1699,41.44782 L79,41 L79,43.685 C79,46.06811 77.10576,48 74.78055,48 L4.219454,48 C1.889114,48 0,46.06968 0,43.685" id="Stroke-5"></path>
            </g>
            <g id="Group-2" transform="translate(30.000000, 14.000000)" fill="#3782F7">
                <path d="M9.55364015,2.57045441 C10.4320043,0.99660431 12.2097252,-0.0163256609 14.07832,0.000202380952 C14.8219,0.0169190476 15.5345,0.184065476 16.18512,0.501661905 C17.4554,1.13685476 18.36936,2.22337738 18.77214,3.56062976 C19.25236,5.18204524 18.97352,7.02075714 17.93562,8.89292262 C16.54142,11.4671274 14.06284,13.4395706 9.97318,16.6991182 L9.7408,16.8829894 C9.6705539,16.9461605 9.58259853,16.9806837 9.49032757,16.9937768 L9.49028,17 C9.47119028,17 9.45371493,16.999657 9.43762458,16.9989536 C9.42510434,16.999657 9.41255207,17 9.4,17 C9.4,17 9.40000825,16.9990423 9.4000246,16.9971425 C9.28831528,16.9858537 9.25329542,16.9511841 9.17678,16.8834468 L8.94166,16.6836442 C4.8505,13.3702248 2.38956,11.3555345 1.01016,8.77473214 C0.00696,6.8932369 -0.2595,5.04505357 0.25776,3.44662857 C0.68098,2.11459762 1.63716,1.04898095 2.9225,0.449569048 C3.58084,0.149842857 4.30188,0 5.05428,0 C6.91969088,0.0163815311 8.61831649,1.04744344 9.55364015,2.57045441 Z" id="Combined-Shape"></path>
            </g>
        </g>
    </g>
</svg>