<?xml version="1.0" encoding="UTF-8"?>
<svg width="63px" height="56px" viewBox="0 0 63 56" version="1.1" xmlns="http://www.w3.org/2000/svg" xmlns:xlink="http://www.w3.org/1999/xlink">
    <!-- Generator: Sketch 48.2 (47327) - http://www.bohemiancoding.com/sketch -->
    <title>Group 36</title>
    <desc>Created with Sketch.</desc>
    <defs>
        <path d="M6.77622994,4.29273681 C5.94611566,5.12217054 5.95959182,6.05997765 6.82395443,7.53159233 L7.27021274,8.26011191 C7.67355334,9.02729952 7.59183803,9.33732974 7.31527633,9.61383622 C6.9809474,9.94795895 6.52516135,9.91383505 6.03426863,9.51978115 C6.03306693,9.51883803 5.96920539,9.4641369 5.87718983,9.37222528 C5.76800718,9.2629945 5.61942608,9.10232066 5.48646703,8.91403903 C5.22818827,8.54905047 4.98424403,7.90163947 4.89480353,7.34468252 C4.87823729,7.20750101 4.80948313,7.07040524 4.70751066,6.96829075 C4.44399594,6.70515946 4.0320718,6.7052452 3.76872875,6.96829075 C3.59911798,7.13770992 3.53748815,7.35728607 3.58907523,7.59992588 C3.72443768,8.38211771 4.03413185,9.086802 4.51017505,9.69528775 L4.09773589,10.1074325 C3.77576726,10.4292946 3.95808167,11.0692463 4.63266218,11.0623015 C4.65918532,11.0620443 4.68613764,11.0505554 4.70484976,11.0316929 L5.26071989,10.476365 C6.34087272,11.3355499 7.55278291,11.3701883 8.36521509,10.5588454 C9.19232513,9.7319838 9.17172463,8.75645177 8.29577424,7.29855524 L7.86410795,6.55537439 C7.47887862,5.8007046 7.55389877,5.50962257 7.82659788,5.23723153 C8.14985404,4.91434054 8.60057579,4.94975052 9.06408702,5.33300137 C9.06588957,5.33454467 9.13395705,5.38958875 9.22708847,5.48244349 C9.33258019,5.5877303 9.48150463,5.75337697 9.59042977,5.94543109 C9.73162903,6.19201486 9.91943691,6.60518843 10.0235553,7.02290614 C10.0572027,7.15734402 10.1177167,7.26854678 10.2022646,7.3526562 C10.4698136,7.6198172 10.8850853,7.62298952 11.1481708,7.36020118 C11.3225026,7.18615214 11.3764072,6.95765918 11.3051638,6.7019014 C11.1740931,6.12591052 10.9385608,5.619625 10.585348,5.15663739 L11.1051673,4.63731963 C11.1237077,4.61845717 11.135553,4.59162104 11.135553,4.56512786 C11.142849,3.89139515 10.5020019,3.70928669 10.1801191,4.0308916 L9.82888055,4.38181906 C9.28296732,3.93537897 8.69945819,3.71057277 8.15139908,3.71057277 C7.6431676,3.71057277 7.1654077,3.90382723 6.77622994,4.29273681 L6.77622994,4.29273681 Z" id="path-1"></path>
    </defs>
    <g id="Footer-Copy-3" stroke="none" stroke-width="1" fill="none" fill-rule="evenodd" transform="translate(-1010.000000, -73.000000)">
        <g id="Group" transform="translate(99.000000, 72.000000)">
            <g id="Group-36" transform="translate(910.000000, 0.000000)">
                <g id="Group-30" transform="translate(0.507702, 0.000000)">
                    <g id="Group-28" transform="translate(28.653513, 28.827608) rotate(-315.000000) translate(-28.653513, -28.827608) translate(4.153513, 12.827608)">
                        <path d="M1.61057121,1.23854124 C1.07855867,1.24371286 0.65,1.67645774 0.65,2.20849542 L0.65,29.9304983 C0.650007638,29.9352128 0.650007638,29.9352128 0.650045827,29.9399271 C0.655253202,30.475618 1.09373789,30.9056598 1.62942879,30.9004525 L47.2771745,30.4567172 C47.809187,30.4515456 48.2377457,30.0188007 48.2377457,29.4867631 L48.2377457,1.76476017 C48.237738,1.7600457 48.237738,1.7600457 48.2376998,1.75533138 C48.2324925,1.21964048 47.7940078,0.789598619 47.2583169,0.794805994 L1.61057121,1.23854124 Z" id="Rectangle-198" stroke="#484848" stroke-width="1.3"></path>
                        <path d="M4.97278434,10.9264112 C4.97278434,10.9264112 9.65950989,10.9520665 9.96152057,5.48520716 L39.2541394,5.48520716 C39.2541394,5.48520716 39.2781072,9.70897573 43.8,10.4276216 C43.7999989,13.634593 43.7999989,21.6909801 43.7999989,21.6909801 C43.7999989,21.6909801 39.299077,22.2075402 39.2990742,27.1577456 C37.333367,27.2002689 10.0340799,27.2002685 10.0340799,27.2002685 C10.0340799,27.2002685 9.44720275,22.3510393 4.99703554,22.3510394 C4.99703554,18.1279789 4.97278434,10.9264112 4.97278434,10.9264112 Z" id="Path-1001" fill="#3483FA"></path>
                        <g id="Group-27" transform="translate(16.800000, 10.875000)">
                            <ellipse id="Oval-33" stroke="#484848" stroke-width="1.2" fill="#FFFFFF" cx="7.46086957" cy="7.46894113" rx="7.46086957" ry="7.46894113"></ellipse>
                            <mask id="mask-2" fill="white">
                                <use xlink:href="#path-1"></use>
                            </mask>
                            <use id="Clip-43" fill="#484848" transform="translate(7.453537, 7.427698) rotate(-45.000000) translate(-7.453537, -7.427698) " xlink:href="#path-1"></use>
                        </g>
                    </g>
                    <path d="M30.6805481,38.2768291 C30.184182,38.2768291 29.7048792,38.3746419 29.2560104,38.5448286 C29.7991098,37.1166852 29.5031748,35.4393673 28.3540707,34.2907981 C27.2261048,33.1641065 25.5915858,32.8644355 24.1810554,33.3648199 C24.681751,31.9547383 24.3812318,30.3218113 23.2541573,29.1956284 C22.1039071,28.0462961 20.4255836,27.7515858 18.9959524,28.294326 C19.1662042,27.8454555 19.264255,27.367203 19.264255,26.8712705 C19.264255,25.7999086 18.8498949,24.795324 18.0959227,24.0425851 C17.3428419,23.2895918 16.3377578,22.8751911 15.2649296,22.8751911 C14.192738,22.8751911 13.1879087,23.2895918 12.4338091,24.0425851 L6.92934074,29.5422343 C6.17549585,30.2945916 5.76062649,31.2994306 5.76062649,32.3707925 C5.76062649,33.4425359 6.17549585,34.4468662 6.92934074,35.1997322 C7.68203957,35.9522167 8.68763299,36.3664902 9.76058856,36.3664902 C10.2573367,36.3664902 10.735366,36.2688046 11.1855082,36.0984908 C10.6417721,37.5265069 10.9375798,39.2039521 12.0866839,40.3522668 C12.8672699,41.132607 13.8922188,41.5222047 14.9179317,41.5222047 C15.3743135,41.5222047 15.8268751,41.4322779 16.2617366,41.2783722 C16.1109677,41.7037117 16.0183925,42.1529637 16.0183925,42.6187511 C16.0183925,43.6904946 16.4330071,44.6953336 17.1869794,45.4480725 C17.9404422,46.2004298 18.946163,46.615212 20.0178452,46.615212 C20.5157393,46.615212 20.9952967,46.5166361 21.4456936,46.3460678 C21.2745504,46.7958287 21.1768817,47.2753531 21.1768817,47.772176 C21.1768817,48.8434107 21.5912417,49.8482497 22.3450866,50.6008614 C23.0981674,51.3539819 24.1032515,51.7682554 25.1759524,51.7682554 C26.2480166,51.7682554 27.2531006,51.3539819 28.0072002,50.6008614 L33.5116686,45.101085 C34.2653861,44.3484733 34.6803828,43.3441431 34.6803828,42.2725268 C34.6803828,41.201165 34.2653861,40.1968347 33.5116686,39.4438415 C32.7590971,38.6912298 31.7533763,38.2768291 30.6805481,38.2768291" id="Fill-50" stroke="#484848" stroke-width="1.3" fill="#FFFFFF" stroke-linejoin="round"></path>
                    <path d="M62.2799135,10.4361327 L40.8271604,10.4361328 L34.6486884,4.30279905 L34.5542032,4.20892928 C34.3215554,3.99969381 34.0203995,3.86334098 33.682188,3.86334098 C33.3323887,3.86334098 33.0182442,4.00516319 32.7830497,4.22775411 L20.95367,16.1297541 C26.8247463,21.7913222 31.6298708,16.0257087 31.6298708,16.0257087 L34.2508141,13.4013384 L52.1126083,31.116014 L62.2799135,31.0284647 L62.2799135,10.4361327 Z" id="Fill-45" stroke="#484848" stroke-width="1.3" fill="#FFFFFF" stroke-linejoin="round"></path>
                    <path d="M10.6645555,36.7337557 L19.3440226,28.3071483" id="Path-981" stroke="#484848" stroke-width="1.2"></path>
                    <path d="M16.0701917,41.3438456 L24.2093221,33.1959098" id="Path-981-Copy" stroke="#484848" stroke-width="1.2"></path>
                    <path d="M20.95367,46.7758028 L29.6354091,38.0846713" id="Path-981-Copy-2" stroke="#484848" stroke-width="1.2"></path>
                </g>
            </g>
        </g>
    </g>
</svg>